# xmcd
#
# Track frame offsets: 
#        150
#        13965
#        30159
#        47662
#        58613
#        76882
#        90976
#        108241
#        120812
#        133820
#
# Disc length: 1996 seconds
#
# Revision: 0
# Processed by: cddbd v1.5.2PL0 Copyright (c) Steve Scherf et al.
# Submitted via: ExactAudioCopy v0.99pb4
#
DISCID=6c07ca0a
DTITLE=Ray Gutterud - Diamond Eagle
DYEAR=1900
DGENRE=
TTITLE0=Don't Lose That Smile
TTITLE1=Marguartiaville
TTITLE2=Lookin' For Love
TTITLE3=Good Hearted Woman
TTITLE4=Run For the Roses
TTITLE5=Here's a Song To All You Old Cowboys
TTITLE6=Don't Fall In Love With a Dreamer
TTITLE7=Blue Eyes Crying In the Rain
TTITLE8=Lucille
TTITLE9=Green Green Grass Of Home
EXTD=
EXTT0=
EXTT1=
EXTT2=
EXTT3=
EXTT4=
EXTT5=
EXTT6=
EXTT7=
EXTT8=
EXTT9=
PLAYORDER=
